<?xml version="1.0" encoding="utf-8"?>
<!-- Generator: Adobe Illustrator 24.0.2, SVG Export Plug-In . SVG Version: 6.00 Build 0)  -->
<svg version="1.1" id="Layer_1" xmlns="http://www.w3.org/2000/svg" xmlns:xlink="http://www.w3.org/1999/xlink" x="0px" y="0px"
	 viewBox="0 0 500 625" style="enable-background:new 0 0 500 625;" xml:space="preserve">
<style type="text/css">
	.st0{fill:#484848;}
</style>
<g>
	<g>
		<g>
			<g>
				<path class="st0" d="M60.5,263c5.1,0,10.2,0.2,15.3,0.6c2.3,0.2,4.6,0.4,6.9,0.7c0.5,0.1,4.9,0.8,1.4,0.2
					c-3.5-0.7,2.1,0.3,2.7,0.4c9.5,1.6,19,3.9,28.1,6.8c4.4,1.4,8.8,3.1,13.1,4.8c4.2,1.6-3.1-1.5-0.5-0.2c1,0.5,2,0.9,3,1.3
					c2.4,1.1,4.8,2.2,7.1,3.4c8.6,4.3,16.9,9.3,24.7,14.9c1.5,1,4.4,2.4,5.3,3.9c-1.7-2.8-2.3-1.8-0.4-0.3c0.8,0.7,1.7,1.4,2.5,2.1
					c3.7,3.1,7.3,6.2,10.7,9.6c3.5,3.3,6.8,6.8,10,10.3c1.5,1.6,2.9,3.3,4.3,4.9c0.7,0.8,1.4,1.7,2.1,2.5c0.4,0.5,0.8,1,1.2,1.5
					c1.3,1.7,1.1,1.4-0.7-1c1.4,0.8,2.9,4,3.9,5.3c1.3,1.8,2.5,3.6,3.7,5.4c2.8,4.2,5.4,8.5,7.8,12.9c2.2,4,4.3,8.1,6.3,12.3
					c0.5,1,0.9,2,1.4,3c0.9,2,2.2,2.1-0.2-0.5c1.4,1.5,2.2,5.4,2.9,7.4c3.7,10.1,6.6,20.5,8.5,31.1c0.3,1.8,2,6.4,1.3,8.1
					c-0.1-0.9-0.2-1.7-0.3-2.6c0.1,0.9,0.2,1.8,0.3,2.7c0.2,1.4,0.3,2.7,0.4,4.1c0.6,6,0.8,12.1,0.8,18.1c0,10.5,9.2,20.5,20,20
					c10.8-0.5,20-8.8,20-20c-0.2-43.5-13.4-87.2-38.8-122.7c-25.7-35.9-60.8-62.9-102.2-78.3C110,227.1,85,223,60.4,222.9
					c-10.5,0-20.5,9.2-20,20C41,253.8,49.3,262.9,60.5,263L60.5,263z"/>
			</g>
		</g>
		<g>
			<g>
				<path class="st0" d="M60.5,171.6c7.5,0,15,0.3,22.4,0.8c3.7,0.3,7.4,0.6,11,1c0.9,0.1,1.8,0.2,2.7,0.3c1.6,0.2,2.8-0.4-1.2-0.2
					c1.9-0.1,4.2,0.6,6.1,0.9c14.3,2.3,28.4,5.6,42.2,10c7,2.2,13.9,4.7,20.8,7.5c0.6,0.3,2,0.6,2.5,1c0,0-3.8-1.6-1.7-0.7
					c1.6,0.7,3.3,1.4,4.9,2.1c3.4,1.5,6.8,3.2,10.2,4.8c12.6,6.3,24.7,13.5,36.3,21.5c2.9,2,5.7,4.1,8.5,6.2
					c0.5,0.4,1.8,1.1,2.1,1.6c-0.2-0.3-3.7-2.9-0.9-0.7c1.4,1.1,2.7,2.2,4.1,3.3c5.6,4.6,11,9.3,16.3,14.3
					c10.3,9.8,19.8,20.3,28.8,31.4c2.2,2.8-2.5-3.3,0.5,0.6c1.1,1.4,2.1,2.8,3.1,4.2c2.2,3,4.3,6.1,6.4,9.2
					c3.9,5.8,7.6,11.8,11.1,17.9s6.8,12.4,9.8,18.7c1.5,3.2,3,6.4,4.4,9.7c0.5,1.2,1.8,2.7-0.4-1.1c0.4,0.7,0.7,1.7,1,2.5
					c0.7,1.6,1.3,3.3,2,5c5.9,15.3,10.5,31.1,13.8,47.2c0.8,4,1.5,8.1,2.2,12.1c0.2,1.5,1.9,7.8,0.4,2.2c0.5,1.9,0.5,4.2,0.7,6.2
					c0.9,8.6,1.5,17.1,1.7,25.7c0.3,10.5,9,20.5,20,20c10.6-0.5,20.3-8.8,20-20c-1.5-62.8-21.7-125-58.9-175.8
					c-37.3-50.8-88.1-89.4-147.4-111c-33.6-12.3-69.6-18.2-105.3-18.3c-10.5,0-20.5,9.2-20,20C41,162.4,49.3,171.5,60.5,171.6
					L60.5,171.6z"/>
			</g>
		</g>
		<g>
			<g>
				<path class="st0" d="M60.5,78c10.3,0,20.5,0.4,30.8,1.2c4.6,0.4,9.2,0.8,13.8,1.4c1.1,0.1,2.3,0.3,3.4,0.4
					c2,0.3,3.7-0.6-0.5-0.1c2.3-0.3,5.8,0.8,8.1,1.2c19.2,3.1,38.1,7.7,56.5,13.7c8.9,2.9,17.7,6.1,26.3,9.7c1.7,0.7,4.7,0.8,0.1,0
					c0.7,0.1,1.9,0.8,2.4,1.1c2,0.9,4,1.8,6.1,2.7c4.4,2,8.8,4.1,13.1,6.3c16.9,8.5,33.1,18.3,48.5,29.2c3.6,2.5,7.1,5.1,10.6,7.8
					c3.7,2.8-3.5-2.8,0.1,0.1c0.9,0.7,1.7,1.4,2.6,2c2,1.6,4.1,3.3,6.1,5c7.2,6,14.2,12.3,21,18.8c6.6,6.4,13,13,19.1,19.8
					c2.9,3.3,5.8,6.6,8.6,9.9c1.5,1.8,3.1,3.7,4.6,5.6c0.7,0.9,1.4,1.7,2,2.6c0.5,0.7,1.1,1.4,1.6,2.1c-1.7-2.1-2-2.6-1.1-1.5
					c11.1,15.1,21.5,30.4,30.6,46.7c4.6,8.3,8.9,16.8,12.8,25.4c1,2.2,2,4.4,3,6.7c0.3,0.7,0.9,1.7,1.1,2.4c-0.7-4.6-0.7-1.6,0,0.1
					c1.9,4.5,3.6,9.1,5.3,13.7c7.4,20.3,13.1,41.2,16.9,62.4c0.5,2.7,0.9,5.4,1.4,8.1c0.1,0.9,0.3,1.8,0.4,2.7
					c0.2,1.4,1.8,7.2,0.2,1.5c1.4,5.1,1.3,11.2,1.8,16.5c1,11.2,1.4,22.3,1.5,33.5c0,10.5,9.2,20.5,20,20s20-8.8,20-20
					c-0.1-81.8-25.4-163.2-73-229.9C339,140.7,273.3,90.3,197.1,62.1C153.6,46,106.9,38.1,60.5,38C50,38,40,47.2,40.5,58
					C41,68.9,49.3,78,60.5,78L60.5,78z"/>
			</g>
		</g>
	</g>
	<g>
		<g>
			<path class="st0" d="M130.5,397.1c0,1.2-0.1,2.3-0.1,3.5c0,2.8,0.8-3.9,0.2-1.2c-0.4,2-0.8,3.9-1.4,5.9c0.1-0.2-0.8,2.5-0.9,2.5
				c0.2,0,2.1-4.1,0.2-0.6c-1,1.8-2.5,3.7-3.4,5.6c-1.1,2.4,3.2-3.5,0.3-0.4c-0.6,0.6-1.2,1.3-1.8,1.9c-0.4,0.4-3.4,3.7-3.8,3.5
				c0.1,0,3.9-2.4,0.4-0.4c-0.9,0.5-1.8,1.2-2.8,1.7c-0.8,0.4-1.6,0.8-2.3,1.2c-3.4,1.9,3.9-1.1-0.1,0c-1.7,0.5-3.4,1.1-5.2,1.4
				c-0.4,0.1-0.9,0.2-1.3,0.3c-1.8,0.3-1.8,0.3,0,0c0.4-0.1,0.9-0.1,1.3-0.2c-0.7,0.1-1.4,0.1-2.1,0.1c-1.7,0.1-4.6-0.6-6.3-0.1
				c2.3-0.7,3.6,0.6,1.3,0.2c-1.3-0.3-2.6-0.5-3.9-0.9c-0.9-0.2-1.7-0.6-2.5-0.8c-4.1-1.1,2.7,1.7,0.5,0.3c-1.6-1.1-3.5-1.8-5.2-2.8
				c-0.3-0.2-2.2-1.3-2.2-1.5s3.2,2.9,1,0.7c-1.7-1.6-3.3-3.6-5-5.1c-1.9-1.6,1.8,3.2,0.7,0.9c-0.4-0.9-1.2-1.8-1.8-2.7
				c-0.4-0.6-2.8-4.2-2.4-4.7c0.2-0.2,1.4,4.1,0.6,1.1c-0.3-1.1-0.7-2.1-1-3.2s-0.5-2.2-0.7-3.3c-0.9-3.9,0,4.2,0-0.1
				c0-1.9,0-3.7,0-5.6c0.1-4.1-0.1,1.3-0.3,1.2c-0.3-0.2,0.5-2.9,0.6-3.3c0.1-0.3,1.3-5.8,1.7-5.7c0.2,0-2.3,4.6-0.4,1.1
				c0.6-1.2,1.2-2.3,1.9-3.5c0.4-0.7,1-1.5,1.4-2.2c2-3.3-0.7,1.1-0.8,0.9c-0.2-0.5,4.1-4.4,4.5-4.7c0.3-0.2,1.8-1.8,2-1.7
				c0.2,0.1-3.6,2.4-0.9,0.8c1.9-1.1,3.7-2.2,5.7-3.3c3.7-2-3.1,0.6-0.5,0.2c1-0.1,2.2-0.7,3.2-1c1.7-0.5,3.6-0.6,5.3-1.1
				c-4,1.3-2.8,0.3-1.2,0.3c1.2,0,2.3-0.1,3.5-0.1c0.9,0,1.9,0.1,2.8,0.1c1.6,0.1,0.9,0-1.9-0.3c0.7,0.1,1.3,0.2,2,0.4
				c0.5,0.1,7.1,1.4,7.1,2c0,0.2-4.6-2.3-1.1-0.4c1.2,0.6,2.3,1.2,3.5,1.9c0.7,0.4,1.5,1,2.2,1.4c3.7,2.2-3-2.9,0.1,0.1
				c1.6,1.5,3.1,3,4.6,4.6c2.7,2.8-0.9-0.9-0.7-1c0.3-0.1,1.9,2.8,2.2,3.3c0.4,0.7,0.9,1.5,1.3,2.3c2.3,4.3,0.5,0,0.1,0
				c0.6,0,1.9,6.5,2,7.1c0,0.2,0.1,0.4,0.1,0.7c0.3,1.8,0.3,1.8,0,0c-0.2-1.8-0.3-1.7-0.1,0.1C130.4,395.3,130.5,396.2,130.5,397.1
				c0.2,10.5,9.1,20.5,20,20c10.7-0.5,20.2-8.8,20-20c-0.4-27.9-17.7-51.6-43.7-61.3c-24.1-9-53.8-0.9-70.2,18.8
				c-17.7,21.2-21.3,51.6-6.9,75.7c14.4,24.1,42.1,35.4,69.4,30.3c29.9-5.5,50.9-33.8,51.4-63.5c0.2-10.5-9.3-20.5-20-20
				C139.5,377.6,130.6,385.9,130.5,397.1z"/>
		</g>
	</g>
</g>
</svg>
