<?xml version="1.0" encoding="utf-8"?>
<!-- Generator: Adobe Illustrator 24.0.2, SVG Export Plug-In . SVG Version: 6.00 Build 0)  -->
<svg version="1.1" id="Layer_1" xmlns="http://www.w3.org/2000/svg" xmlns:xlink="http://www.w3.org/1999/xlink" x="0px" y="0px"
	 viewBox="0 0 512 640" style="enable-background:new 0 0 512 640;" xml:space="preserve">
<style type="text/css">
	.st0{fill:#E6E4E5;}
</style>
<g>
	<path class="st0" d="M256,143.5c-62,0-112.5,50.5-112.5,112.5S194,368.5,256,368.5S368.5,318,368.5,256S318,143.5,256,143.5
		 M256,331c-0.1,0-0.2,0-0.3,0V181c0.1,0,0.2,0,0.3,0c41.4,0,75,33.6,75,75S297.4,331,256,331"/>
	<path class="st0" d="M256,106c10.4,0,18.8-8.4,18.8-18.8c0-10.3-8.4-18.8-18.8-18.8c-10.3,0-18.8,8.4-18.8,18.8
		C237.3,97.6,245.7,106,256,106"/>
	<path class="st0" d="M256,406c-10.3,0-18.8,8.4-18.8,18.8s8.4,18.8,18.8,18.8c10.4,0,18.8-8.4,18.8-18.8S266.4,406,256,406"/>
	<path class="st0" d="M424.8,237.3c-10.3,0-18.8,8.4-18.8,18.8c0,10.4,8.4,18.8,18.8,18.8s18.8-8.4,18.8-18.8
		C443.5,245.7,435.1,237.3,424.8,237.3"/>
	<path class="st0" d="M87.3,237.3c-10.3,0-18.8,8.4-18.8,18.8c0,10.4,8.4,18.8,18.8,18.8s18.8-8.4,18.8-18.8
		C106,245.7,97.6,237.3,87.3,237.3"/>
	<path class="st0" d="M362.1,123.4c-7.3,7.3-7.3,19.2,0,26.5c7.3,7.3,19.2,7.3,26.5,0s7.3-19.2,0-26.5
		C381.3,116.1,369.4,116.1,362.1,123.4"/>
	<path class="st0" d="M123.4,362.1c-7.3,7.3-7.3,19.2,0,26.5c7.3,7.3,19.2,7.3,26.5,0c7.3-7.3,7.3-19.2,0-26.5
		C142.6,354.8,130.7,354.8,123.4,362.1"/>
	<path class="st0" d="M362.1,362.1c-7.3,7.3-7.3,19.2,0,26.5s19.2,7.3,26.5,0s7.3-19.2,0-26.5C381.3,354.7,369.4,354.7,362.1,362.1"
		/>
	<path class="st0" d="M149.9,149.9c7.3-7.3,7.3-19.2,0-26.5c-7.3-7.3-19.2-7.3-26.5,0c-7.3,7.3-7.3,19.2,0,26.5
		C130.7,157.3,142.6,157.3,149.9,149.9"/>
</g>
</svg>
