<?xml version="1.0" encoding="utf-8"?>
<!-- Generator: Adobe Illustrator 24.0.2, SVG Export Plug-In . SVG Version: 6.00 Build 0)  -->
<svg version="1.1" id="Layer_1" xmlns="http://www.w3.org/2000/svg" xmlns:xlink="http://www.w3.org/1999/xlink" x="0px" y="0px"
	 viewBox="0 0 53 66.2" style="enable-background:new 0 0 53 66.2;" xml:space="preserve">
<style type="text/css">
	.st0{fill:#E6E4E5;}
</style>
<path class="st0" d="M12.5,21.4c0,1.1,0,1.9,0,1.9h5.2h5.2c0,0,0-0.8,0-1.9c0-1.1-3.6-2.2-3.6-2.2c-0.2-0.2-0.4-0.7-0.5-1.1
	c0.7-0.4,1.2-1,1.5-1.9c0.4-0.2,0.7-0.6,0.7-1.1c0-0.4-0.2-0.8-0.5-1c-0.3-1.6-1.4-2.8-2.8-2.8c-1.4,0-2.5,1.2-2.8,2.8
	c-0.3,0.2-0.5,0.6-0.5,1c0,0.5,0.3,1,0.7,1.1c0.3,0.8,0.8,1.5,1.5,1.9c-0.1,0.4-0.3,0.9-0.5,1.1C16.1,19.2,12.5,20.3,12.5,21.4z"/>
<rect x="25.8" y="13.6" class="st0" width="8.9" height="1.7"/>
<rect x="25.8" y="21.6" class="st0" width="8.9" height="1.7"/>
<polygon class="st0" points="32.2,29.7 12.5,29.7 12.5,31.4 31.2,31.4 "/>
<path class="st0" d="M12.5,39.4h17.2c0,0,0,0,0,0c0.1-0.6,0.1-1.2,0.2-1.7H12.5C12.5,37.7,12.5,39.4,12.5,39.4z"/>
<path class="st0" d="M39.9,38.8V45c0,0.7-0.6,1.3-1.3,1.3h-30c-0.7,0-1.3-0.6-1.3-1.3V8c0-0.7,0.6-1.3,1.3-1.3h30
	c0.7,0,1.3,0.6,1.3,1.3v8.2l0.1-0.2c0.6-1,1.5-1.8,2.5-2.3V8c0-2.1-1.7-3.9-3.9-3.9h-30C6.5,4.2,4.7,5.9,4.7,8V45
	c0,2.1,1.7,3.9,3.9,3.9h30c2.1,0,3.9-1.7,3.9-3.9v-9.9l-1.4,2.4C40.9,37.8,40.6,38.2,39.9,38.8z"/>
<path class="st0" d="M46.7,16.2c-0.5-0.3-1.1-0.4-1.6-0.4c-1.2,0-2.2,0.6-2.8,1.6l-9,15.6c-0.3,0.5-0.6,2.7-1,6.7
	c0,0.3,0.1,0.7,0.4,0.8c0.1,0.1,0.3,0.1,0.4,0.1c0.2,0,0.4-0.1,0.5-0.2c3.2-2.3,5-3.7,5.3-4.2l9-15.6C48.7,19.1,48.2,17.1,46.7,16.2
	z M35.3,37c-0.1-0.1-0.3-0.2-0.5-0.3c-0.2-0.1-0.3-0.2-0.5-0.2c0.1-0.7,0.2-1.3,0.2-1.7l2.1,1.2C36.3,36.2,35.8,36.6,35.3,37z"/>
</svg>
